<svg xmlns="http://www.w3.org/2000/svg" viewBox="0 0 44.1 47.1" enable-background="new 0 0 44.1 47.1"><style type="text/css">.st0{fill:#BB9D6E;}</style><path class="st0" d="M8.3 43.6c.5 0 .9-.3 1-.8 0 .5.3 1 .9 1 .5 0 1-.3 1-.9.1-.6.2-2 .2-2.5 3.4.3 7.2-2.2 8-7.6.3-2.3-.3-4.6-1.7-6.5-1-1.3-2.2-2.2-3.7-2.8.1-.2.2-.4.2-.7.1-.6-.1-1.2-.4-1.7-.4-.5-.9-.8-1.5-.9-1.1-.2-2.2.6-2.6 1.7l-.1.3v.7c-.1 0-.3.1-.6.1l-.6-1.7c.6-.4 1.1-1.1 1.3-1.8.1-.4.1-.7.1-1.1l-.3-4.2c0-.4-.1-.8-.3-1.1l2.3-1.9.2.1c.8.4 1.7.5 2.5.2l4-1.4c1-.4 1.8-1.2 2.1-2.2h2c.3.8 1 1.5 1.8 1.8l3.9 1.6c.8.3 1.7.3 2.5 0l.9 1.1c-.2.3-.3.6-.4.9-.1.4-.2.9-.1 1.4l.6 4.2c.2 1.2 1 2.2 2.1 2.7v1.4c-2.9.1-5.7 1.6-7.3 4.4-.5.9-.9 1.7-1.1 2.5-1 3.7.3 6.8 2.7 8.4l-1.3 2.1c-.3.4-.1 1 .3 1.3.4.3 1 .1 1.3-.3l-.1.2c-.1.4 0 .8.4 1.1.4.3 1 .1 1.3-.3.1-.2 1.1-1.7 1.4-2.2 3 1.5 7.5.6 10.3-4.1 2-3.5 1.3-7.9-1.4-10.6l.5-.5c.1-.2.2-.3.2-.5.3-1-.1-2.1-1.1-2.6-1.1-.6-2.5-.3-3.2.8-.1.2-.2.3-.2.5v.1l-.7-.2v-1.4c1.2-.3 2.1-1.1 2.5-2.3.1-.4.2-.9.1-1.4l-.6-4.2c-.2-1.8-1.9-3.1-3.7-2.8-.3 0-.6.1-.9.2l-.8-1.1c.1-.2.3-.4.3-.6.7-1.7-.1-3.7-1.8-4.3l-3.9-1.6c-.8-.3-1.7-.3-2.5 0s-1.5 1-1.8 1.8c0 .1-.1.2-.1.4 0 .1 0 .2-.1.2h-1.8v-.1c-.5-.8-1.1-1.5-1.9-1.9-.8-.4-1.7-.5-2.5-.2l-4 1.4c-1 .4-1.8 1.2-2.1 2.2-.2.7-.2 1.3.1 2l.2.5-2.2 1.8c-.6-.4-1.3-.6-2-.5-1.4.1-2.6 1.1-3 2.4-.1.4-.1.7-.1 1.1l.3 4.2c0 1.8 1.5 3.1 3.3 3.1l.6 1.6c-2.3 1-4.2 3.1-4.9 5.6l-.3 1.2c-.8 5.4 2.2 8.9 5.6 9.5-.1.6-.2 2.4-.3 2.6.1.5.5 1 1 1.1zm31.5-8.5c-1.6 2.8-4.8 4.8-7.8 3.3-.9-.5-2-.2-2.5.6.4-.8.1-1.9-.7-2.4-2.8-1.8-2.6-5.6-1-8.4 1.9-3.3 6.1-4.4 9.4-2.5 3.4 1.9 4.5 6.2 2.6 9.4zm-1.7-11.6c.1-.2.4-.3.6-.2.2.1.2.3.2.5v.1c-.1.2-.4.3-.6.2-.2-.1-.3-.4-.2-.6zm-2.5-9.4l.6 4.2v.6c-.1.3-.3.6-.6.8v-1.4c0-.5-.4-1-.9-1-.4 0-.8.3-.9.7v1.3c-.2-.2-.3-.4-.3-.7l-.6-4.2v-.3l.7.8c.3.4.9.5 1.3.2s.5-.9.2-1.3l-.8-1c.6 0 1.2.5 1.3 1.3zm-10.7-8.8c.4-.1.7-.1 1.1 0l3.9 1.6c.6.3 1 .9.9 1.5l-.5-.6c-.3-.4-.9-.5-1.3-.2-.2.1-.3.3-.3.5-.1.3 0 .6.2.9l.5.6c-.2 0-.3 0-.5-.1l-3.9-1.6c-.1 0-.2-.1-.2-.1h.7c.5 0 .9-.4.9-1 0-.5-.4-.9-1-.9h-1.1c.1-.3.3-.5.6-.6zm-12.2 1.7l4-1.4c.4-.1.7-.1 1.1.1.2.1.3.2.4.3h-.8c-.4 0-.8.3-.9.7v.3c0 .5.4.9 1 .9h.7c-.2.2-.4.3-.6.4l-4 1.4-.3.1.7-.6c.4-.3.5-.9.1-1.3-.3-.4-.9-.5-1.3-.1l-1.1.9c0-.8.4-1.5 1-1.7zm-7.6 11.7l-.3-4.2c0-.8.6-1.5 1.3-1.5h.2l-.6.5c-.2.1-.3.3-.3.5-.1.3 0 .6.2.9.4.4 1 .5 1.4.1l.7-.6.3 4.1c0 .2 0 .3-.1.5 0 .1-.1.3-.2.4l-.3-.9c-.2-.5-.7-.7-1.2-.6-.3.1-.5.4-.6.6-.1.2-.1.4 0 .6l.3.8c-.5-.2-.8-.6-.8-1.2zm6.6 4.1l-.1-.3c0-.2.2-.4.5-.4.1 0 .2.1.3.2l.1.3v.1c-.1.2-.3.3-.5.3-.1-.1-.2-.2-.3-.2zm-7.7 7.9c.5-3.8 4-6.4 7.8-5.8 1.8.3 3.4 1.2 4.5 2.7 1.1 1.5 1.6 3.3 1.3 5.1-.6 4.2-3.4 6.2-5.9 6-1-.1-1.9.6-2.1 1.5.1-1.1-.6-2-1.6-2.2-3.2-.6-4.5-4.2-4-7.3z" id="Your_Icon_2_"/></svg>