<?xml version="1.0" encoding="utf-8"?>
<!-- Generator: Adobe Illustrator 18.1.1, SVG Export Plug-In . SVG Version: 6.00 Build 0)  -->
<!DOCTYPE svg PUBLIC "-//W3C//DTD SVG 1.1//EN" "http://www.w3.org/Graphics/SVG/1.1/DTD/svg11.dtd">
<svg version="1.1" id="Layer_1" xmlns="http://www.w3.org/2000/svg" xmlns:xlink="http://www.w3.org/1999/xlink" x="0px" y="0px"
	 viewBox="0 0 286.8 365.2" style="enable-background:new 0 0 286.8 365.2;" xml:space="preserve">
<style type="text/css">
	.st0{fill:none;stroke:#87724F;stroke-miterlimit:10;}
	.st1{fill:#87724F;}
</style>
<g>
	<path class="st0" d="M280,336.6V29.9c-10.5,0-19-8.5-19-19c0-0.1,0-0.2,0-0.3H23.7c0,0.1,0,0.2,0,0.3c0,10.4-8.3,18.8-18.7,19
		v306.7c10.3,0.2,18.7,8.6,18.7,19H261C261,345.1,269.5,336.6,280,336.6z"/>
	<g>
		<path class="st1" d="M12.5,15.5c2.4,2.4,2.1,3.2,1.4,3.9c-0.7,0.7-1.5,1-3.9-1.4S5,10.6,5,10.6S10,13,12.5,15.5z"/>
		<g>
			<circle class="st1" cx="9" cy="20.7" r="1.7"/>
			<circle class="st1" cx="15.1" cy="14.6" r="1.7"/>
		</g>
	</g>
	<g>
		<path class="st1" d="M272.6,15.5c-2.4,2.4-2.1,3.2-1.4,3.9c0.7,0.7,1.5,1,3.9-1.4s4.9-7.4,4.9-7.4S275,13,272.6,15.5z"/>
		<g>
			<circle class="st1" cx="276" cy="20.7" r="1.7"/>
			<circle class="st1" cx="269.9" cy="14.6" r="1.7"/>
		</g>
	</g>
	<g>
		<path class="st1" d="M272.6,350.7c-2.4-2.4-2.1-3.2-1.4-3.9c0.7-0.7,1.5-1,3.9,1.4s4.9,7.4,4.9,7.4S275,353.1,272.6,350.7z"/>
		<g>
			<circle class="st1" cx="276" cy="345.5" r="1.7"/>
			<circle class="st1" cx="269.9" cy="351.6" r="1.7"/>
		</g>
	</g>
	<g>
		<path class="st1" d="M12.5,350.7c2.4-2.4,2.1-3.2,1.4-3.9c-0.7-0.7-1.5-1-3.9,1.4S5,355.6,5,355.6S10,353.1,12.5,350.7z"/>
		<g>
			<circle class="st1" cx="9" cy="345.5" r="1.7"/>
			<circle class="st1" cx="15.1" cy="351.6" r="1.7"/>
		</g>
	</g>
</g>
<g>
</g>
<g>
</g>
<g>
</g>
<g>
</g>
<g>
</g>
<g>
</g>
</svg>
