<?xml version="1.0" encoding="utf-8"?>
<!-- Generator: Adobe Illustrator 18.1.1, SVG Export Plug-In . SVG Version: 6.00 Build 0)  -->
<!DOCTYPE svg PUBLIC "-//W3C//DTD SVG 1.1//EN" "http://www.w3.org/Graphics/SVG/1.1/DTD/svg11.dtd">
<svg version="1.1" id="Layer_1" xmlns="http://www.w3.org/2000/svg" xmlns:xlink="http://www.w3.org/1999/xlink" x="0px" y="0px"
	 viewBox="0 0 41.4 43.2" style="enable-background:new 0 0 41.4 43.2;" xml:space="preserve">
<style type="text/css">
	.st0{fill:#87724F;}
</style>
<g>
	<g>
		<g id="Your_Icon_9_">
			<path class="st0" d="M34.1,29.1c-0.3,0-0.5,0.1-0.7,0.2l-4.2-7.1l4.2-7.1c0.2,0.1,0.4,0.2,0.7,0.2c0.7,0,1.3-0.6,1.3-1.3
				c0-0.7-0.6-1.3-1.3-1.3c-0.7,0-1.3,0.6-1.3,1.3c0,0,0,0,0,0l-8.2,0.1l-4-7.2c0.4-0.2,0.7-0.7,0.7-1.2c0-0.7-0.6-1.3-1.3-1.3
				c-0.7,0-1.3,0.6-1.3,1.3c0,0.5,0.3,0.9,0.7,1.2l-4,7.2L6.9,14c0,0,0,0,0,0c0-0.7-0.6-1.3-1.3-1.3c-0.7,0-1.3,0.6-1.3,1.3
				c0,0.7,0.6,1.3,1.3,1.3c0.2,0,0.5-0.1,0.7-0.2l4.2,7.1l-4.2,7.1c-0.2-0.1-0.4-0.2-0.7-0.2c-0.7,0-1.3,0.6-1.3,1.3
				c0,0.7,0.6,1.3,1.3,1.3c0.7,0,1.3-0.6,1.3-1.3c0,0,0,0,0,0l8.2-0.1l4,7.2c-0.4,0.2-0.7,0.7-0.7,1.2c0,0.7,0.6,1.3,1.3,1.3
				c0.7,0,1.3-0.6,1.3-1.3c0-0.5-0.3-0.9-0.7-1.2l4-7.2l8.2,0.1c0,0,0,0,0,0c0,0.7,0.6,1.3,1.3,1.3c0.7,0,1.3-0.6,1.3-1.3
				C35.5,29.7,34.9,29.1,34.1,29.1z"/>
		</g>
	</g>
</g>
<g>
</g>
<g>
</g>
<g>
</g>
<g>
</g>
<g>
</g>
<g>
</g>
</svg>
